<?xml version="1.0" encoding="UTF-8"?>
<svg xmlns="http://www.w3.org/2000/svg"
     viewBox="150 200 520 140"
     fill="none">
<path d="M0 0 C1.34964844 -0.01836914 1.34964844 -0.01836914 2.7265625 -0.03710938 C14.42582617 -0.06232331 23.91176309 2.01021261 32.84765625 9.9375 C45.02595307 22.78493401 46.96021691 38.89366175 46.8515625 55.84375 C46.20474695 69.76568466 41.85597114 82.6575518 31.75 92.5625 C24.20167811 98.89541413 13.91649814 101.30898196 4.20703125 101.3203125 C3.14935547 101.32160156 2.09167969 101.32289063 1.00195312 101.32421875 C-0.09181641 101.32035156 -1.18558594 101.31648438 -2.3125 101.3125 C-3.41787109 101.31636719 -4.52324219 101.32023437 -5.66210938 101.32421875 C-6.71591797 101.32292969 -7.76972656 101.32164062 -8.85546875 101.3203125 C-9.81864014 101.31918457 -10.78181152 101.31805664 -11.77416992 101.31689453 C-14.125 101.1875 -14.125 101.1875 -16.125 100.1875 C-16.17128627 87.72248247 -16.20685032 75.25748529 -16.22862434 62.79239941 C-16.23907337 57.00471657 -16.25325299 51.21709242 -16.27587891 45.42944336 C-16.29756737 39.84682448 -16.3095602 34.26426214 -16.31475449 28.68160439 C-16.31845743 26.54889345 -16.3256881 24.41618571 -16.33646011 22.28349876 C-16.35092186 19.30245588 -16.35298017 16.32164834 -16.35205078 13.34057617 C-16.35924133 12.4536911 -16.36643188 11.56680603 -16.37384033 10.65304565 C-16.371091 9.84116287 -16.36834167 9.02928009 -16.36550903 8.1927948 C-16.36827441 7.13503735 -16.36827441 7.13503735 -16.37109566 6.05591106 C-16.125 4.1875 -16.125 4.1875 -14.125 1.1875 C-9.64905876 -0.46344241 -4.70319817 0.00328436 0 0 Z M2.875 19.1875 C2.8518729 27.38440561 2.83408304 35.58129768 2.82318783 43.77822781 C2.8179598 47.58401577 2.81086362 51.38978148 2.79956055 55.19555664 C2.7887288 58.86542544 2.78272256 62.53527278 2.78012276 66.20515633 C2.77826903 67.60824992 2.7746494 69.01134229 2.76926994 70.4144268 C2.76205581 72.3731968 2.76159191 74.3319882 2.76147461 76.29077148 C2.759254 77.40773911 2.75703339 78.52470673 2.75474548 79.67552185 C2.58989224 82.12655414 2.58989224 82.12655414 3.875 83.1875 C9.97190716 83.70418705 13.02569031 83.2653286 17.875 79.1875 C23.66571172 73.56710333 26.02372833 65.13318815 26.40625 57.25 C26.41669358 55.22916681 26.40616637 53.20811984 26.375 51.1875 C26.39046875 50.18460937 26.4059375 49.18171875 26.421875 48.1484375 C26.37410416 38.90478037 24.10005934 29.30185353 17.875 22.1875 C14.03765482 19.97364701 11.01250933 19.03555481 6.640625 19.1171875 C4.77664063 19.15199219 4.77664063 19.15199219 2.875 19.1875 Z " fill="#F9F9F9" transform="translate(344.125,213.8125)"/>
<path d="M0 0 C1.02637573 0.0002417 1.02637573 0.0002417 2.07348633 0.00048828 C4.13059121 -0.00383993 6.1854691 -0.04001471 8.2421875 -0.078125 C17.10676114 -0.1041845 23.80370081 0.59049801 30.86914062 6.16015625 C38.16248477 14.83831258 40.29156658 22.53451042 39.90429688 33.890625 C39.13983408 42.62314231 35.69008835 46.86266172 29.65820312 53.171875 C27.46744268 55.39206631 27.46744268 55.39206631 25.59960938 58.37109375 C26.22184739 60.66783957 26.22184739 60.66783957 27.52929688 63.09765625 C28.22309448 64.51050903 28.22309448 64.51050903 28.9309082 65.9519043 C29.44032959 66.95648682 29.94975098 67.96106934 30.47460938 68.99609375 C30.97822998 70.0219458 31.48185059 71.04779785 32.00073242 72.10473633 C33.96109226 76.09785477 35.94901777 80.07674894 37.94677734 84.05126953 C39.11425006 86.38116891 40.26399757 88.719114 41.41210938 91.05859375 C41.94457275 92.08944092 41.94457275 92.08944092 42.48779297 93.14111328 C44.77829424 97.82283627 44.77829424 97.82283627 43.79882812 100.828125 C43.40308594 101.33730469 43.00734375 101.84648437 42.59960938 102.37109375 C39.66058589 102.50591134 36.72771378 102.60508791 33.78710938 102.68359375 C32.95373047 102.72548828 32.12035156 102.76738281 31.26171875 102.81054688 C30.45927734 102.82666016 29.65683594 102.84277344 28.83007812 102.859375 C28.09168701 102.88555908 27.3532959 102.91174316 26.5925293 102.9387207 C24.59960938 102.37109375 24.59960938 102.37109375 23.04492188 100.26757812 C22.56796875 99.31173828 22.09101563 98.35589844 21.59960938 97.37109375 C20.79487183 95.77237427 20.79487183 95.77237427 19.97387695 94.14135742 C19.40306396 92.9526001 18.83225098 91.76384277 18.24414062 90.5390625 C17.78439095 89.58414665 17.78439095 89.58414665 17.31535339 88.60993958 C16.3453507 86.59389895 15.37868192 84.57628082 14.41210938 82.55859375 C13.75152242 81.18413887 13.09071734 79.80978881 12.4296875 78.43554688 C10.81713662 75.08193782 9.20756998 71.72690658 7.59960938 68.37109375 C7.57979004 69.29446533 7.5599707 70.21783691 7.53955078 71.16918945 C7.46143199 74.59670549 7.37473941 78.02378173 7.28222656 81.45092773 C7.2439559 82.93391587 7.2090996 84.41699623 7.17773438 85.90014648 C7.13204137 88.03272447 7.074056 90.16466866 7.01367188 92.296875 C6.98225098 93.57989502 6.95083008 94.86291504 6.91845703 96.18481445 C6.59960938 99.37109375 6.59960938 99.37109375 4.59960938 102.37109375 C2.0053414 102.647776 -0.31302708 102.74404617 -2.90039062 102.68359375 C-3.59003906 102.68681641 -4.2796875 102.69003906 -4.99023438 102.69335938 C-10.1332647 102.63821967 -10.1332647 102.63821967 -12.40039062 100.37109375 C-12.59939768 97.27785173 -12.67300645 94.27409601 -12.65917969 91.1796875 C-12.66443665 89.75029343 -12.66443665 89.75029343 -12.6697998 88.29202271 C-12.67862816 85.1308064 -12.67276405 81.96981248 -12.66601562 78.80859375 C-12.66736196 76.61905881 -12.66930222 74.42952415 -12.67181396 72.23999023 C-12.67476673 67.64661824 -12.67046268 63.05332392 -12.66113281 58.45996094 C-12.64973823 52.56143512 -12.65629689 46.66309128 -12.66827774 40.76457214 C-12.67549222 36.24197001 -12.6732103 31.71941128 -12.66802216 27.19680786 C-12.66668452 25.02141295 -12.66833734 22.84601414 -12.67298126 20.67062378 C-12.67803971 17.63447577 -12.67034581 14.59862572 -12.65917969 11.5625 C-12.66322815 10.65646027 -12.66727661 9.75042053 -12.67144775 8.81692505 C-12.60431379 -0.99722065 -8.62220276 0.07656618 0 0 Z M7.59960938 18.37109375 C6.30415489 19.44138504 6.30415489 19.44138504 6.48608398 21.96313477 C6.4913208 23.08905029 6.49655762 24.21496582 6.50195312 25.375 C6.50517578 26.58994141 6.50839844 27.80488281 6.51171875 29.05664062 C6.52009766 30.33603516 6.52847656 31.61542969 6.53710938 32.93359375 C6.54162109 34.21685547 6.54613281 35.50011719 6.55078125 36.82226562 C6.56261392 40.00525397 6.57909869 43.18815137 6.59960938 46.37109375 C8.50613281 46.17580078 8.50613281 46.17580078 10.45117188 45.9765625 C11.16611816 45.90332764 11.88106445 45.83009277 12.61767578 45.75463867 C15.66429182 45.16505579 16.84312513 43.87070594 18.59960938 41.37109375 C21.24806371 35.54449421 21.51559134 30.06815175 19.47460938 24.05859375 C17.19064581 20.78491264 15.32149005 19.73831522 11.59960938 18.37109375 C10.27960938 18.37109375 8.95960938 18.37109375 7.59960938 18.37109375 Z " fill="#F9F9F9" transform="translate(240.400390625,214.62890625)"/>
<path d="M0 0 C3.35910024 0.07496639 5.51927253 0.20731877 8.19726562 2.32177734 C9.8916862 5.07770257 11.02539062 7.34260551 11.02539062 10.60693359 C11.54101562 10.27693359 12.05664062 9.94693359 12.58789062 9.60693359 C17.05831413 7.7729137 21.46759014 8.35753653 26.02539062 9.60693359 C26.27289063 8.95724609 26.52039063 8.30755859 26.77539062 7.63818359 C28.26230454 4.62718292 29.43493234 2.77903075 32.02539062 0.60693359 C37.45943189 -0.26900142 42.57412382 -0.05954193 48.02539062 0.60693359 C49.02539062 1.60693359 49.02539062 1.60693359 49.15039062 4.10693359 C49.02539062 6.60693359 49.02539062 6.60693359 48.02539062 7.60693359 C45.83899609 7.67952305 43.65038674 7.69067142 41.46289062 7.66943359 C39.66658203 7.65589844 39.66658203 7.65589844 37.83398438 7.64208984 C36.90714844 7.63048828 35.9803125 7.61888672 35.02539062 7.60693359 C34.72890625 8.52732422 34.43242187 9.44771484 34.12695312 10.39599609 C33.01379413 13.64073615 31.61527045 16.57170847 30.02539062 19.60693359 C31.07726562 19.83380859 32.12914062 20.06068359 33.21289062 20.29443359 C37.32190896 21.18069245 39.45775999 23.33998469 42.02539062 26.60693359 C42.75745765 29.95761345 42.70285629 33.2389885 42.65429688 36.65771484 C42.65670883 37.63048874 42.65912079 38.60326263 42.66160583 39.60551453 C42.66062792 41.66063517 42.64724755 43.71578233 42.62231445 45.77075195 C42.5881172 48.8987096 42.60163131 52.02382276 42.62109375 55.15185547 C42.61419156 57.15382051 42.60451582 59.1557783 42.59179688 61.15771484 C42.59675674 62.08505936 42.60171661 63.01240387 42.60682678 63.96784973 C42.47466776 71.34669324 40.82249771 76.87804863 35.46289062 82.10693359 C33.02539062 83.60693359 33.02539062 83.60693359 30.02539062 83.60693359 C30.07759766 84.69361328 30.07759766 84.69361328 30.13085938 85.80224609 C30.32086929 92.58831443 30.06011211 97.23502083 25.33789062 102.48193359 C21.93300658 104.13836367 18.69830804 104.1545853 15.02539062 103.60693359 C11.43986181 101.97006175 10.23224007 100.91720777 8.02539062 97.60693359 C7.83007812 94.25146484 7.83007812 94.25146484 7.90039062 90.41943359 C7.9184375 89.14712891 7.93648437 87.87482422 7.95507812 86.56396484 C7.97828125 85.58814453 8.00148437 84.61232422 8.02539062 83.60693359 C7.26613281 83.50509766 6.506875 83.40326172 5.72460938 83.29833984 C2.74065438 82.53399826 1.80004672 81.85378084 -0.16210938 79.54443359 C-0.65066406 78.99658203 -1.13921875 78.44873047 -1.64257812 77.88427734 C-5.09590052 71.98021003 -5.27504106 65.34539625 -5.24023438 58.68896484 C-5.24214783 57.86869308 -5.24406128 57.04842133 -5.24603271 56.20329285 C-5.24738446 54.48310028 -5.24375921 52.76289716 -5.23535156 51.04272461 C-5.22459576 48.41610856 -5.23530236 45.7901699 -5.24804688 43.16357422 C-5.24672591 41.48453626 -5.24416482 39.80549872 -5.24023438 38.12646484 C-5.24428284 37.34616409 -5.2483313 36.56586334 -5.25250244 35.76191711 C-5.21691962 31.61575115 -4.94884258 28.2900323 -2.97460938 24.60693359 C0.14443385 21.6564873 3.05052584 20.11831434 7.02539062 18.60693359 C5.84994421 14.84140466 4.56079592 11.65774982 2.02539062 8.60693359 C-2.01538106 7.4339799 -5.79888094 7.55142169 -9.97460938 7.60693359 C-10.63460937 7.27693359 -11.29460937 6.94693359 -11.97460938 6.60693359 C-10.61480461 -0.9691215 -6.92715159 0.13836058 0 0 Z " fill="#F7F7F7" transform="translate(163.974609375,213.39306640625)"/>
<path d="M0 0 C2.82836662 6.35579637 4.24859031 12.93753495 5.69921875 19.71875 C5.9391304 20.81723267 6.17904205 21.91571533 6.42622375 23.04748535 C7.1855804 26.53046729 7.93665903 30.01517348 8.6875 33.5 C9.20322889 35.87251484 9.71949928 38.24491203 10.23632812 40.6171875 C11.49715473 46.41011174 12.75120336 52.20447122 14 58 C15.5753941 55.10477026 16.48343588 52.43413062 17.18920898 49.21899414 C17.39960312 48.27443863 17.60999725 47.32988312 17.82676697 46.35670471 C18.04764481 45.34309372 18.26852264 44.32948273 18.49609375 43.28515625 C18.97702246 41.13342083 19.45814834 38.98172946 19.93945312 36.83007812 C20.69079865 33.44251011 21.43929005 30.05435194 22.18383789 26.6652832 C22.90524606 23.39098028 23.63754935 20.11925829 24.37109375 16.84765625 C24.58994736 15.83606949 24.80880096 14.82448273 25.0342865 13.78224182 C27.07883513 4.70863826 27.07883513 4.70863826 30 1 C34.66387819 -1.3319391 39.86168674 -1.66553391 45 -1 C45.99 -0.34 46.98 0.32 48 1 C48.51199541 6.90146045 47.52317017 12.00588858 46.02807617 17.69165039 C45.8183165 18.52038162 45.60855682 19.34911285 45.3924408 20.20295715 C44.70200196 22.92035275 43.99784223 25.63397234 43.29296875 28.34765625 C42.80623406 30.24742109 42.32018637 32.14736207 41.83479309 34.04747009 C40.81765124 38.020603 39.79401347 41.99198507 38.76538086 45.9621582 C37.45031698 51.03896611 36.14876547 56.11911593 34.85172558 61.20055485 C33.84983075 65.12142858 32.84216784 69.04080126 31.83263588 72.95971489 C31.35078893 74.83195338 30.87039219 76.70456575 30.39150047 78.57756233 C29.71999557 81.19911457 29.04108172 83.818638 28.36010742 86.43774414 C28.165177 87.20417236 27.97024658 87.97060059 27.76940918 88.76025391 C26.55427098 93.39437281 24.98908955 97.6396308 23 102 C20.58145554 102.13536629 18.17050217 102.23420279 15.75 102.3125 C15.06808594 102.35439453 14.38617188 102.39628906 13.68359375 102.43945312 C10.28361065 102.52197699 8.47319479 102.44388084 5.95068359 100.07763672 C3.3559231 95.98382561 2.30405363 91.93902193 1.1171875 87.26953125 C0.86105179 86.30184311 0.60491608 85.33415497 0.34101868 84.33714294 C-0.49411634 81.16553262 -1.31021307 77.98939342 -2.125 74.8125 C-2.69700897 72.61608045 -3.26952388 70.41979261 -3.8425293 68.22363281 C-7.63922991 53.60056408 -11.28620088 38.94051437 -14.8125 24.25 C-15.02900208 23.35318512 -15.24550415 22.45637024 -15.46856689 21.53237915 C-16.0757174 19.00752298 -16.67435562 16.48082748 -17.26953125 13.953125 C-17.44699387 13.21573593 -17.62445648 12.47834686 -17.80729675 11.71861267 C-18.64838156 8.09379729 -19.30789976 4.72651212 -19 1 C-15.76408484 -2.23591516 -3.88596175 -1.69388076 0 0 Z " fill="#F8F8F8" transform="translate(477,215)"/>
<path d="M0 0 C1.19606369 -0.00461494 1.19606369 -0.00461494 2.41629028 -0.00932312 C3.27262054 -0.0021376 4.12895081 0.00504791 5.01123047 0.01245117 C6.33306839 0.0131385 6.33306839 0.0131385 7.68161011 0.01383972 C9.5426366 0.01685936 11.40366062 0.02473707 13.26464844 0.03710938 C16.12427647 0.05539344 18.98358128 0.05761885 21.84326172 0.05737305 C23.64925412 0.06228722 25.45524432 0.06811509 27.26123047 0.07495117 C28.12160919 0.076064 28.98198792 0.07717682 29.86843872 0.07832336 C35.88736298 0.12686493 35.88736298 0.12686493 37.00341797 1.24291992 C37.10328772 4.0862704 37.14219678 6.89989155 37.12841797 9.74291992 C37.13421875 10.93981445 37.13421875 10.93981445 37.14013672 12.16088867 C37.13002564 18.11631225 37.13002564 18.11631225 36.00341797 19.24291992 C34.29569439 19.33005824 32.58443148 19.34992 30.87451172 19.34057617 C29.32280273 19.33574219 29.32280273 19.33574219 27.73974609 19.33081055 C26.65113281 19.32243164 25.56251953 19.31405273 24.44091797 19.30541992 C22.80219727 19.29865234 22.80219727 19.29865234 21.13037109 19.29174805 C18.42136365 19.27991832 15.71238417 19.26198223 13.00341797 19.24291992 C13.00341797 25.18291992 13.00341797 31.12291992 13.00341797 37.24291992 C14.41236328 37.2197168 15.82130859 37.19651367 17.27294922 37.17260742 C19.12060018 37.15384954 20.96825686 37.13564936 22.81591797 37.11791992 C23.7446875 37.10116211 24.67345703 37.0844043 25.63037109 37.06713867 C26.52304687 37.06069336 27.41572266 37.05424805 28.33544922 37.04760742 C29.56871948 37.03189697 29.56871948 37.03189697 30.8269043 37.01586914 C33.00341797 37.24291992 33.00341797 37.24291992 36.00341797 39.24291992 C37.60228244 45.11257674 37.26373786 50.6516023 35.00341797 56.24291992 C32.65402908 57.41761436 31.05268592 57.44326881 28.43310547 57.55932617 C27.22243408 57.61648804 27.22243408 57.61648804 25.98730469 57.67480469 C24.96137207 57.71790771 23.93543945 57.76101074 22.87841797 57.80541992 C19.61966797 57.94979492 16.36091797 58.09416992 13.00341797 58.24291992 C12.67341797 65.50291992 12.34341797 72.76291992 12.00341797 80.24291992 C18.36093202 80.08530766 18.36093202 80.08530766 24.71704102 79.88256836 C28.76855356 79.83194997 31.4411198 79.96529401 35.12060547 81.78198242 C37.65105902 85.08942171 37.63592243 87.87606385 37.44091797 91.86791992 C37.43511719 92.54854492 37.42931641 93.22916992 37.42333984 93.93041992 C37.29941436 98.94692353 37.29941436 98.94692353 35.00341797 101.24291992 C32.01365394 101.43072391 29.11811597 101.49841624 26.12841797 101.47338867 C25.24814941 101.47293045 24.36788086 101.47247223 23.4609375 101.47200012 C21.59813084 101.46897649 19.73532673 101.46108687 17.87255859 101.44873047 C15.01504598 101.43049413 12.15785765 101.42822062 9.30029297 101.4284668 C7.49299849 101.42355088 5.68570621 101.41772224 3.87841797 101.41088867 C3.02006348 101.40977585 2.16170898 101.40866302 1.27734375 101.40751648 C-4.76445422 101.35898383 -4.76445422 101.35898383 -6.99658203 100.24291992 C-7.99869153 95.26454504 -8.14049176 90.33879209 -8.12597656 85.27905273 C-8.12772888 84.51541412 -8.1294812 83.75177551 -8.13128662 82.96499634 C-8.13566135 80.45865557 -8.13278145 77.95238632 -8.12939453 75.44604492 C-8.13006911 73.6887816 -8.13104041 71.93151837 -8.1322937 70.17425537 C-8.13376499 66.49596262 -8.13163545 62.81769421 -8.12695312 59.1394043 C-8.12127305 54.4515144 -8.12452754 49.76368198 -8.13052559 45.07579422 C-8.13416098 41.44671201 -8.13297871 37.81764313 -8.1303978 34.18856049 C-8.12973587 32.4615961 -8.13053095 30.73463046 -8.13287735 29.00766754 C-8.15650558 6.72023179 -8.15650558 6.72023179 -6.99658203 2.24291992 C-3.96205065 0.219899 -3.39756749 -0.00690751 0 0 Z " fill="#F7F7F7" transform="translate(638.99658203125,213.757080078125)"/>
<path d="M0 0 C0.85665756 -0.0033284 1.71331512 -0.0066568 2.59593201 -0.01008606 C4.4056647 -0.01514627 6.21540672 -0.01749466 8.02514648 -0.01733398 C10.80142425 -0.01952559 13.5773079 -0.03770467 16.35351562 -0.05664062 C18.11067572 -0.05957365 19.86783771 -0.06155905 21.625 -0.0625 C22.45834366 -0.06968552 23.29168732 -0.07687103 24.15028381 -0.08427429 C30.01726329 -0.06086171 30.01726329 -0.06086171 32.24609375 2.16796875 C32.44458446 4.71332016 32.5246115 7.12513634 32.49609375 9.66796875 C32.50769531 10.70244141 32.50769531 10.70244141 32.51953125 11.7578125 C32.49942668 16.91463582 32.49942668 16.91463582 30.24609375 19.16796875 C27.99951172 19.48681641 27.99951172 19.48681641 25.23828125 19.58203125 C24.25214844 19.62070313 23.26601563 19.659375 22.25 19.69921875 C20.70119141 19.745625 20.70119141 19.745625 19.12109375 19.79296875 C18.08082031 19.83164063 17.04054688 19.8703125 15.96875 19.91015625 C13.39482973 20.00461204 10.8204857 20.08738646 8.24609375 20.16796875 C7.91609375 26.10796875 7.58609375 32.04796875 7.24609375 38.16796875 C9.72109375 37.67296875 9.72109375 37.67296875 12.24609375 37.16796875 C14.96839667 37.02555451 17.64903796 36.93780158 20.37109375 36.91796875 C21.08652344 36.89734375 21.80195313 36.87671875 22.5390625 36.85546875 C25.39431486 36.83412107 27.67450829 36.85433538 30.2109375 38.24609375 C31.80922029 41.2134716 31.68011129 43.82481039 31.68359375 47.16796875 C31.70292969 48.40546875 31.72226562 49.64296875 31.7421875 50.91796875 C31.24609375 54.16796875 31.24609375 54.16796875 29.51293945 55.8527832 C26.9055338 57.36555588 25.47017482 57.51843185 22.48046875 57.4609375 C21.67834961 57.45344482 20.87623047 57.44595215 20.04980469 57.43823242 C19.04208008 57.41092041 18.03435547 57.3836084 16.99609375 57.35546875 C13.77859375 57.29359375 10.56109375 57.23171875 7.24609375 57.16796875 C7.24609375 64.75796875 7.24609375 72.34796875 7.24609375 80.16796875 C13.6040023 79.97093653 13.6040023 79.97093653 19.9597168 79.7175293 C24.39227661 79.64830544 26.61969295 79.73726908 30.359375 82.30859375 C32.5356513 85.60680132 32.86494404 87.31336137 32.74609375 91.23046875 C32.73578125 92.25269531 32.72546875 93.27492188 32.71484375 94.328125 C32.16066401 97.6855306 31.75488882 98.86094693 29.24609375 101.16796875 C26.21680122 101.560379 23.55610379 101.70514648 20.52734375 101.6640625 C19.67305786 101.66551773 18.81877197 101.66697296 17.93859863 101.66847229 C16.13302194 101.66681283 14.32743117 101.65524618 12.52197266 101.63452148 C9.75622556 101.60557479 6.99239575 101.61390906 4.2265625 101.62695312 C2.47264692 101.62071546 0.7187374 101.6123243 -1.03515625 101.6015625 C-1.86333862 101.60449814 -2.691521 101.60743378 -3.5447998 101.61045837 C-9.28580665 101.51599741 -9.28580665 101.51599741 -11.47300339 99.8898325 C-13.77702634 96.79263152 -13.14951488 92.85464155 -13.11035156 89.13842773 C-13.11239594 88.21461304 -13.11444031 87.29079834 -13.11654663 86.33898926 C-13.11955871 83.28048006 -13.10106554 80.22250776 -13.08203125 77.1640625 C-13.07897445 75.04321934 -13.07709773 72.92237417 -13.07635498 70.80152893 C-13.07174933 66.35531948 -13.05731247 61.90929089 -13.03515625 57.46313477 C-13.00685653 51.75412374 -12.99594332 46.04525519 -12.99147415 40.33618069 C-12.98732419 35.95683863 -12.97751053 31.57752559 -12.96559906 27.19819832 C-12.95988848 25.09258317 -12.95513239 22.98696521 -12.95133209 20.88134575 C-12.94448315 17.94355198 -12.93085761 15.00587266 -12.91503906 12.06811523 C-12.9139212 11.19169876 -12.91280334 10.31528229 -12.91165161 9.41230774 C-12.86859815 3.39735256 -12.86859815 3.39735256 -11.75390625 1.16796875 C-7.83304936 -0.13898355 -4.08748227 0.0054716 0 0 Z " fill="#F9F9F9" transform="translate(414.75390625,213.83203125)"/>
<path d="M0 0 C1.79427296 2.98014301 2.12872994 4.40338624 1.390625 7.82421875 C1.01421875 8.76910156 0.6378125 9.71398437 0.25 10.6875 C-0.11609375 11.64011719 -0.4821875 12.59273437 -0.859375 13.57421875 C-2 16 -2 16 -4 18 C-6.82957829 17.63723355 -9.29084291 16.90305236 -12 16 C-13.72795352 15.93197033 -15.45835365 15.91504355 -17.1875 15.9375 C-18.08855469 15.94652344 -18.98960937 15.95554688 -19.91796875 15.96484375 C-20.94857422 15.98224609 -20.94857422 15.98224609 -22 16 C-23.20309202 22.26187652 -23.6082194 27.5032681 -20 33 C-16.882572 36.27046538 -13.49056775 39.13700833 -10 42 C-1.32242531 49.19826934 6.95654525 57.42876454 8.3828125 69.14453125 C8.72527999 78.95051714 6.3403193 86.22998698 -0.28515625 93.49609375 C-8.49309104 100.69439647 -18.55723716 100.48693294 -28.86865234 100.14941406 C-34.25818303 99.77159129 -38.5175169 97.98832207 -43 95 C-44.26485315 89.02294885 -42.66450915 83.32901831 -40 78 C-38.11328125 77.12890625 -38.11328125 77.12890625 -36 77 C-34.24609375 77.99609375 -34.24609375 77.99609375 -32.4375 79.4375 C-27.58680438 82.70466647 -22.70191514 83.06246866 -17 82 C-13.91535867 80.17048859 -13.15616314 79.46848942 -12 76 C-11.59569783 70.64299631 -12.22977088 67.58347 -15 63 C-17.25069933 60.54197095 -19.69911256 58.33903146 -22.1875 56.125 C-23.5411622 54.89019674 -24.89403334 53.65452569 -26.24609375 52.41796875 C-26.89433105 51.82935059 -27.54256836 51.24073242 -28.21044922 50.63427734 C-41.40301709 38.58638521 -41.40301709 38.58638521 -42.23828125 29.37109375 C-42.46952945 20.23070422 -41.17163914 11.96906842 -34.75 5.0625 C-25.762686 -2.99709126 -10.89180044 -6.8777964 0 0 Z " fill="#F8F8F8" transform="translate(612,217)"/>
<path d="M0 0 C1.13308594 -0.01675781 2.26617188 -0.03351563 3.43359375 -0.05078125 C6.95355937 0.3579039 8.10588644 0.80799459 10.5625 3.3125 C11.08148193 6.15577698 11.08148193 6.15577698 11.10839844 9.66625977 C11.12811707 10.98356583 11.14783569 12.30087189 11.16815186 13.65809631 C11.1698195 15.1066992 11.17104806 16.55530264 11.171875 18.00390625 C11.18689038 19.50676728 11.20362445 21.00961202 11.22198486 22.51243591 C11.26581273 26.49240782 11.2856525 30.47216087 11.30072021 34.45233154 C11.31990873 38.39870301 11.36217824 42.34481206 11.40234375 46.29101562 C11.46888625 53.15323569 11.50918707 60.01524728 11.53310394 66.87774086 C11.5510622 71.68042044 11.59314173 76.48224772 11.64648438 81.28466797 C11.66562689 83.65722446 11.68452384 86.02978295 11.703125 88.40234375 C11.71897644 89.4769838 11.73482788 90.55162384 11.75115967 91.65882874 C11.75880341 93.12116188 11.75880341 93.12116188 11.76660156 94.61303711 C11.77548401 95.45466904 11.78436646 96.29630096 11.79351807 97.16343689 C11.5625 99.3125 11.5625 99.3125 9.5625 102.3125 C4.1035663 103.56350564 -1.86483323 103.91357375 -7.4375 103.3125 C-10.1433483 100.6066517 -9.6883945 98.47929756 -9.71966553 94.8032074 C-9.71718811 93.88781693 -9.71471069 92.97242645 -9.7121582 92.02929688 C-9.71726913 91.06661392 -9.72238007 90.10393097 -9.72764587 89.11207581 C-9.74158739 85.91840461 -9.74058183 82.72494807 -9.73828125 79.53125 C-9.74216537 77.31929442 -9.74649945 75.10733959 -9.75126648 72.89538574 C-9.75873829 68.25493962 -9.75843023 63.61456956 -9.75317383 58.97412109 C-9.74737474 53.01500343 -9.76431631 47.05619613 -9.7875185 41.09712982 C-9.80221877 36.52819994 -9.80313266 31.95934546 -9.80000877 27.39039612 C-9.80052375 25.19266647 -9.80579429 22.99493279 -9.81582069 20.79722595 C-9.82809749 17.72984377 -9.82144647 14.6630748 -9.80981445 11.59570312 C-9.81745819 10.68031265 -9.82510193 9.76492218 -9.83297729 8.8217926 C-9.82596298 7.98893234 -9.81894867 7.15607208 -9.8117218 6.29797363 C-9.81188954 5.57235481 -9.81205729 4.84673599 -9.81223011 4.09912872 C-8.81986666 -0.6322366 -3.82073017 0.01301043 0 0 Z " fill="#F9F9F9" transform="translate(546.4375,213.6875)"/>
<path d="M0 0 C1.54300781 -0.02513672 1.54300781 -0.02513672 3.1171875 -0.05078125 C6.67112879 0.37846101 8.34609257 1.05135038 11.125 3.3125 C11.76423645 6.42393494 11.76423645 6.42393494 11.78442383 10.31225586 C11.79490753 11.02183945 11.80539124 11.73142303 11.81619263 12.46250916 C11.8450651 14.81789319 11.83862631 17.17181318 11.83203125 19.52734375 C11.84516609 21.17910063 11.86047576 22.83084151 11.87785339 24.4825592 C11.91783883 28.84960249 11.92789527 33.21623039 11.93188477 37.58343506 C11.94108183 41.95094124 11.97854893 46.31818597 12.01367188 50.68554688 C12.06970963 58.09274146 12.09723113 65.49961323 12.10707283 72.9070034 C12.11461893 77.30849753 12.14666062 81.70867144 12.20458984 86.10986328 C12.2143132 87.05857803 12.22403656 88.00729279 12.23405457 88.98475647 C12.25170969 90.63235039 12.27646174 92.27989397 12.3105011 93.92723083 C12.33964947 97.6421976 12.24889292 99.12666063 10.125 102.3125 C4.65839823 103.36745824 -1.32017113 103.99244793 -6.875 103.3125 C-9.5808483 100.6066517 -9.1258945 98.47929756 -9.15716553 94.8032074 C-9.15468811 93.88781693 -9.15221069 92.97242645 -9.1496582 92.02929688 C-9.15476913 91.06661392 -9.15988007 90.10393097 -9.16514587 89.11207581 C-9.17908739 85.91840461 -9.17808183 82.72494807 -9.17578125 79.53125 C-9.17966537 77.31929442 -9.18399945 75.10733959 -9.18876648 72.89538574 C-9.19623829 68.25493962 -9.19593023 63.61456956 -9.19067383 58.97412109 C-9.18487474 53.01500343 -9.20181631 47.05619613 -9.2250185 41.09712982 C-9.23971877 36.52819994 -9.24063266 31.95934546 -9.23750877 27.39039612 C-9.23802375 25.19266647 -9.24329429 22.99493279 -9.25332069 20.79722595 C-9.26559749 17.72984377 -9.25894647 14.6630748 -9.24731445 11.59570312 C-9.25495819 10.68031265 -9.26260193 9.76492218 -9.27047729 8.8217926 C-9.26346298 7.98893234 -9.25644867 7.15607208 -9.2492218 6.29797363 C-9.24938954 5.57235481 -9.24955729 4.84673599 -9.24973011 4.09912872 C-8.29633063 -0.44646514 -3.71805769 0.01390795 0 0 Z " fill="#F9F9F9" transform="translate(304.875,213.6875)"/>
</svg>
